<?xml version="1.0" encoding="iso-8859-1"?>
<!-- Uploaded to: SVG Repo, www.svgrepo.com, Generator: SVG Repo Mixer Tools -->
<svg fill="#000000" height="800px" width="800px" version="1.1" id="Layer_1" xmlns="http://www.w3.org/2000/svg" xmlns:xlink="http://www.w3.org/1999/xlink" 
	 viewBox="0 0 512 512" xml:space="preserve">
<g>
	<g>
		<path d="M436.833,262.291v-46.995c16.002-6.136,27.367-21.634,27.367-39.796c0-23.536-19.08-42.616-42.616-42.616
			c-10.173,0-19.508,3.569-26.835,9.517l-40.71-23.504V32.101h-30.496v86.797L256,157.894l-67.543-38.997V32.101h-30.496v86.797
			l-40.71,23.504c-7.327-5.948-16.662-9.517-26.835-9.517c-23.536,0-42.616,19.08-42.616,42.616
			c0,18.162,11.366,33.66,27.368,39.796v46.995L0,305.688l15.248,26.41l75.162-43.394l67.549,39v77.986l-75.167,43.398l15.248,26.41
			l75.167-43.398l82.791,47.8l55.958-32.308c7.327,5.948,16.662,9.517,26.835,9.517c23.536,0,42.616-19.08,42.616-42.616
			c0-18.162-11.366-33.66-27.368-39.796v-46.995l67.55-38.998l75.162,43.394L512,305.689L436.833,262.291z M173.203,301.289
			l-67.537-38.993v-47.001h-0.001c16.002-6.136,27.367-21.634,27.367-39.796c0-2.277-0.183-4.511-0.528-6.693l40.703-23.5
			l67.543,38.997v47.001c-16.002,6.136-27.367,21.634-27.367,39.796c0,2.276,0.183,4.508,0.527,6.687L173.203,301.289z
			 M323.543,374.699c-16.002,6.136-27.367,21.634-27.367,39.796c0,2.277,0.183,4.511,0.528,6.693L256,444.688l-67.543-38.999
			v-77.985l40.71-23.504c7.327,5.947,16.662,9.516,26.834,9.516c10.172,0,19.508-3.569,26.834-9.516l40.71,23.504V374.699z
			 M406.337,262.297l-67.539,38.993l-40.708-23.503c0.344-2.18,0.527-4.412,0.527-6.687c0-18.162-11.365-33.66-27.367-39.796
			v-47.001l67.543-38.997l40.703,23.5c-0.345,2.182-0.528,4.416-0.528,6.693c0,18.162,11.366,33.66,27.368,39.796V262.297z"/>
	</g>
</g>
</svg>